<?xml version="1.0" encoding="iso-8859-1"?>
<!-- Uploaded to: SVG Repo, www.svgrepo.com, Generator: SVG Repo Mixer Tools -->
<svg  fill="#00bebc" stroke="black" stroke-width="10px" height="800px" width="800px" version="1.1" id="Layer_1" xmlns="http://www.w3.org/2000/svg" xmlns:xlink="http://www.w3.org/1999/xlink" 
	 viewBox="0 0 512 512" xml:space="preserve">
<g>
	<g>
		<path fill="#00bebc" stroke="black" stroke-width="10px" d="M382.256,139.126L263.212,2.771c-3.238-3.695-9.454-3.695-12.692,0L130.743,139.126c-1.361,1.556-2.576,3.549-2.576,5.614
			v357.931c0,4.706,4.881,9.329,9.587,9.329h238.621c4.706,0,7.457-4.623,7.457-9.329V144.74
			C383.833,142.675,383.616,140.682,382.256,139.126z M366.788,494.956H145.212V147.944L256,21.326l110.788,126.617V494.956z"/>
	</g>
</g>
<g>
	<g>
		<path fill="white" stroke="black" stroke-width="10px" d="M297.591,378.716c-1.003-3.084-3.67-5.335-6.883-5.801l-17.964-2.609l-8.035-16.283c-2.88-5.817-12.409-5.817-15.288,0
			l-8.035,16.283l-17.964,2.609c-3.212,0.466-5.88,2.717-6.883,5.801c-1.003,3.083-0.166,6.471,2.155,8.734l13.004,12.675
			l-3.071,17.897c-0.545,3.196,0.77,6.429,3.391,8.335c2.634,1.906,6.117,2.16,8.976,0.649l16.071-8.451l16.071,8.451
			c1.248,0.653,2.609,0.978,3.966,0.978c1.764,0,3.525-0.549,5.01-1.627c2.621-1.906,3.936-5.139,3.391-8.335l-3.071-17.897
			l13.004-12.675C297.758,385.187,298.594,381.8,297.591,378.716z M267.327,391.05c-2.006,1.956-2.921,4.777-2.451,7.54l0.907,5.293
			l-4.752-2.501c-1.24-0.653-2.605-0.978-3.966-0.978s-2.726,0.325-3.966,0.978l-4.752,2.501l0.907-5.293
			c0.47-2.763-0.445-5.584-2.451-7.54l-3.845-3.749l5.31-0.77c2.775-0.404,5.177-2.147,6.421-4.665l2.376-4.819l2.376,4.819
			c1.244,2.518,3.645,4.261,6.421,4.665l5.31,0.77L267.327,391.05z"/>
	</g>
</g>
<g>
	<g>
		<path fill="white" stroke="black" stroke-width="10px" d="M257.065,68.04c-18.796,0-34.089,15.292-34.089,34.089s15.292,34.089,34.089,34.089c18.796,0,34.089-15.292,34.089-34.089
			S275.862,68.04,257.065,68.04z M257.065,119.173c-9.4,0-17.044-7.644-17.044-17.044c0-9.4,7.644-17.044,17.044-17.044
			c9.4,0,17.044,7.644,17.044,17.044C274.11,111.529,266.466,119.173,257.065,119.173z"/>
	</g>
</g>
</svg>