<?xml version="1.0" encoding="iso-8859-1"?>
<!-- Uploaded to: SVG Repo, www.svgrepo.com, Generator: SVG Repo Mixer Tools -->
<svg fill="current" height="800px" width="800px" version="1.1" id="Layer_1" xmlns="http://www.w3.org/2000/svg" xmlns:xlink="http://www.w3.org/1999/xlink" 
	 viewBox="0 0 512 512" xml:space="preserve">
<g>
	<g>
		<path fill="#00bebc" stroke="black" stroke-width="10px" d="M382.26,139.126L263.216,2.771c-3.246-3.695-9.454-3.695-12.7,0L130.739,139.126c-1.357,1.556-2.572,3.549-2.572,5.614
			v357.931c0,4.706,4.877,9.329,9.587,9.329h238.621c4.71,0,7.457-4.623,7.457-9.329V144.74
			C383.833,142.675,383.616,140.682,382.26,139.126z M366.788,494.956H145.212V147.944L256,21.326l110.788,126.617V494.956z"/>
	</g>
</g>
<g>
	<g>
		<path fill="white" stroke="black" stroke-width="10px" d="M295.923,216.795c-1.007-3.084-3.67-5.335-6.883-5.801l-17.968-2.609l-8.031-16.283c-1.432-2.909-4.394-4.752-7.64-4.752
			c-3.246,0-6.209,1.843-7.64,4.752l-8.039,16.283l-17.968,2.609c-3.212,0.466-5.876,2.717-6.883,5.801
			c-0.999,3.088-0.166,6.475,2.155,8.739l13.008,12.671l-3.071,17.897c-0.549,3.196,0.766,6.429,3.387,8.335
			c1.49,1.078,3.246,1.627,5.01,1.627c1.357,0,2.721-0.324,3.97-0.978l16.071-8.451l16.062,8.451c2.871,1.511,6.35,1.265,8.98-0.649
			c2.621-1.906,3.936-5.139,3.387-8.335l-3.071-17.897l13.008-12.671C296.089,223.27,296.921,219.883,295.923,216.795z
			 M265.654,229.125c-2.006,1.96-2.921,4.781-2.447,7.544l0.907,5.289l-4.744-2.497c-2.497-1.307-5.443-1.307-7.94,0l-4.752,2.501
			l0.907-5.293c0.474-2.763-0.441-5.584-2.447-7.544l-3.845-3.745l5.31-0.77c2.78-0.404,5.177-2.147,6.417-4.665l2.38-4.81
			l2.372,4.81c1.24,2.518,3.637,4.261,6.417,4.665l5.31,0.77L265.654,229.125z"/>
	</g>
</g>
<g>
	<g>
		<path fill="white" stroke="black" stroke-width="10px" d="M295.923,302.017c-1.007-3.084-3.67-5.335-6.883-5.801l-17.968-2.609l-8.031-16.283c-1.432-2.909-4.394-4.752-7.64-4.752
			c-3.246,0-6.209,1.843-7.64,4.752l-8.039,16.283l-17.968,2.609c-3.212,0.466-5.876,2.717-6.883,5.801
			c-0.999,3.088-0.166,6.475,2.155,8.739l13.008,12.671l-3.071,17.897c-0.549,3.196,0.766,6.429,3.387,8.335
			c1.49,1.078,3.246,1.627,5.01,1.627c1.357,0,2.721-0.324,3.97-0.978l16.071-8.451l16.062,8.451c2.871,1.511,6.35,1.265,8.98-0.649
			c2.621-1.906,3.936-5.139,3.387-8.335l-3.071-17.897l13.008-12.671C296.089,308.492,296.921,305.104,295.923,302.017z
			 M265.654,314.346c-2.006,1.96-2.921,4.781-2.447,7.544l0.907,5.289l-4.744-2.497c-2.497-1.307-5.443-1.307-7.94,0l-4.752,2.501
			l0.907-5.293c0.474-2.763-0.441-5.584-2.447-7.544l-3.845-3.745l5.31-0.77c2.78-0.404,5.177-2.147,6.417-4.665l2.38-4.81
			l2.372,4.81c1.24,2.518,3.637,4.261,6.417,4.665l5.31,0.77L265.654,314.346z"/>
	</g>
</g>
<g>
	<g>
		<path fill="white" stroke="black" stroke-width="10px" d="M295.923,387.238c-1.007-3.083-3.67-5.335-6.883-5.801l-17.968-2.609l-8.031-16.283c-1.432-2.909-4.394-4.752-7.64-4.752
			c-3.246,0-6.209,1.843-7.64,4.752l-8.039,16.283l-17.968,2.609c-3.212,0.466-5.876,2.717-6.883,5.801
			c-0.999,3.088-0.166,6.475,2.155,8.739l13.008,12.671l-3.071,17.897c-0.549,3.196,0.766,6.429,3.387,8.335
			c1.49,1.078,3.246,1.627,5.01,1.627c1.357,0,2.721-0.324,3.97-0.978l16.071-8.451l16.062,8.451c2.871,1.511,6.35,1.265,8.98-0.649
			c2.621-1.906,3.936-5.139,3.387-8.335l-3.071-17.897l13.008-12.671C296.089,393.713,296.921,390.326,295.923,387.238z
			 M265.654,399.568c-2.006,1.96-2.921,4.781-2.447,7.544l0.907,5.289l-4.744-2.497c-2.497-1.307-5.443-1.307-7.94,0l-4.752,2.501
			l0.907-5.293c0.474-2.763-0.441-5.584-2.447-7.544l-3.845-3.745l5.31-0.77c2.78-0.404,5.177-2.147,6.417-4.665l2.38-4.81
			l2.372,4.81c1.24,2.518,3.637,4.261,6.417,4.665l5.31,0.77L265.654,399.568z"/>
	</g>
</g>
<g>
	<g>
		<path fill="white" stroke="black" stroke-width="10px" d="M257.065,68.04c-18.8,0-34.089,15.292-34.089,34.089s15.288,34.089,34.089,34.089c18.8,0,34.089-15.292,34.089-34.089
			S275.866,68.04,257.065,68.04z M257.065,119.173c-9.396,0-17.044-7.644-17.044-17.044c0-9.4,7.648-17.044,17.044-17.044
			s17.044,7.644,17.044,17.044C274.11,111.529,266.461,119.173,257.065,119.173z"/>
	</g>
</g>
</svg>