<?xml version="1.0" encoding="iso-8859-1"?>
<!-- Uploaded to: SVG Repo, www.svgrepo.com, Generator: SVG Repo Mixer Tools -->
<svg fill="#000000" height="800px" width="800px" version="1.1" id="Layer_1" xmlns="http://www.w3.org/2000/svg" xmlns:xlink="http://www.w3.org/1999/xlink" 
	 viewBox="0 0 512 512" xml:space="preserve">
<g>
	<g>
		<path fill="#00bebc" stroke="black" stroke-width="10px" d="M371.379,0H143c-5.26,0-10.705,3.355-10.705,8.614v161.769c0,2.825,1.254,5.501,3.42,7.313l110.77,92.308v40.902
			l-26.968,55.852l-63.544,9.274c-3.587,0.521-6.412,3.029-7.536,6.477c-1.115,3.438-0.112,7.22,2.481,9.748l46.241,45.033
			l-10.891,63.581c-0.613,3.568,0.864,7.174,3.792,9.302c2.946,2.137,6.825,2.426,10.031,0.725l57.097-30.016l57.097,30.016
			c1.394,0.734,2.918,1.097,4.433,1.097c1.97,0,3.94-0.614,5.594-1.822c2.927-2.128,4.396-5.734,3.782-9.302l-10.91-63.581
			l46.203-45.033c2.593-2.528,3.522-6.31,2.407-9.748c-1.124-3.448-4.098-5.957-7.685-6.477l-64.436-9.274l-28.157-55.852v-40.902
			l110.77-92.308c2.165-1.812,3.42-4.488,3.42-7.313V8.614C379.705,3.355,376.639,0,371.379,0z M198.905,205.572l-47.579-39.65
			V19.032h47.579V205.572z M279.418,379.666c1.385,2.806,4.061,4.758,7.165,5.204l49.707,7.22l-35.972,35.071
			c-2.24,2.184-3.262,5.334-2.732,8.419l8.494,49.503l-44.457-23.372c-1.394-0.734-2.909-1.096-4.433-1.096
			c-1.524,0-3.039,0.362-4.433,1.096L208.3,485.083l8.494-49.503c0.53-3.085-0.492-6.235-2.732-8.419l-35.972-35.071l49.707-7.22
			c3.104-0.446,5.78-2.398,7.165-5.204l22.228-45.042L279.418,379.666z M257.189,253.154l-39.195-32.167
			c0.323-0.955-0.058-1.961-0.058-3.025V19.032h76.126v198.93c0,1.064,0.808,2.07,1.131,3.025L257.189,253.154z M360.674,165.922
			l-47.579,39.65V19.032h47.579V165.922z"/>
	</g>
</g>
</svg>