<?xml version="1.0" encoding="iso-8859-1"?>
<!-- Uploaded to: SVG Repo, www.svgrepo.com, Generator: SVG Repo Mixer Tools -->
<svg fill="#000000" height="800px" width="800px" version="1.1" id="Layer_1" xmlns="http://www.w3.org/2000/svg" xmlns:xlink="http://www.w3.org/1999/xlink" 
	 viewBox="0 0 512 512" xml:space="preserve">
<g>
	<g>
		<path fill="#00bebc" stroke="black" stroke-width="10px" d="M379.414,190.889L317.52,5.626C316.316,2.016,312.94,0,309.132,0H203.027c-3.808,0-7.184,2.016-8.389,5.626
			l-61.894,185.473c-1.3,3.894-0.298,8.071,3.203,10.221l110.184,68.042v30.826c-53.052,4.512-96.71,50.179-96.71,105.707
			c0,58.509,47.876,106.104,106.381,106.104c58.505,0,105.69-47.595,105.69-106.104c0-55.528-42.414-101.195-97.677-105.707v-30.826
			l111.289-68.146C378.607,199.067,380.714,194.784,379.414,190.889z M219.606,232.278l-68.422-42.032L209.4,17.684h10.206V232.278z
			 M344.5,405.896c0,48.752-39.664,88.42-88.42,88.42c-48.756,0-88.42-39.668-88.42-88.42s39.664-88.42,88.42-88.42
			C304.836,317.475,344.5,357.144,344.5,405.896z M272.658,243.16l-17.684,10.884L237.29,243.16V17.684h35.368V243.16z
			 M290.342,232.278V17.684h12.417l57.11,172.562L290.342,232.278z"/>
	</g>
</g>
<g>
	<g>
		<path fill="white" stroke="black" stroke-width="10px" d="M323.353,384.032c-1.041-3.195-3.808-5.526-7.141-6.01l-36.072-5.241l-16.13-32.691c-2.979-6.044-12.883-6.044-15.862,0
			l-16.13,32.691l-36.072,5.241c-3.333,0.484-6.101,2.815-7.141,6.01c-1.04,3.203-0.173,6.718,2.236,9.066l26.107,25.447
			l-6.165,35.929c-0.566,3.316,0.799,6.666,3.519,8.643c2.729,1.995,6.342,2.254,9.313,0.674l32.264-16.959l32.264,16.959
			c1.295,0.682,2.707,1.019,4.114,1.019c1.831,0,3.657-0.57,5.198-1.692c2.72-1.977,4.084-5.328,3.519-8.643l-6.165-35.929
			l26.107-25.447C323.526,390.75,324.394,387.236,323.353,384.032z M279.337,409.134c-2.081,2.029-3.031,4.956-2.543,7.823
			l3.92,22.848l-20.521-10.785c-1.287-0.682-2.703-1.019-4.114-1.019s-2.828,0.337-4.114,1.019l-20.521,10.785l3.92-22.848
			c0.488-2.867-0.462-5.794-2.543-7.823l-16.605-16.19l22.943-3.333c2.88-0.414,5.371-2.228,6.662-4.836l10.258-20.792
			l10.258,20.792c1.291,2.608,3.782,4.421,6.662,4.836l22.943,3.333L279.337,409.134z"/>
	</g>
</g>
</svg>