<?xml version="1.0" encoding="iso-8859-1"?>
<!-- Uploaded to: SVG Repo, www.svgrepo.com, Generator: SVG Repo Mixer Tools -->
<svg  height="800px" width="800px" version="1.1" id="Layer_1" xmlns="http://www.w3.org/2000/svg" xmlns:xlink="http://www.w3.org/1999/xlink" 
	 viewBox="0 0 512 512" xml:space="preserve">
<g>
	<g>
		<path fill="#00bebc" stroke="black" stroke-width="10px" d="M510.483,233.198c-1.647-2.422-4.379-3.461-7.31-3.461H346.356c-21.024-28.69-53.698-44.138-90.356-44.138
			s-69.33,15.448-90.354,44.138H8.827c-2.931,0-5.664,1.039-7.31,3.461c-1.638,2.422-1.974,5.299-0.888,8.015l17.715,44.185
			c0.004,0.004,0.004-0.041,0.009-0.037L36,329.457c0.004,0.007,0.004,0,0.009,0.004l17.586,44.382
			c1.345,3.353,4.586,5.963,8.198,5.963H173.31c20.894,19.862,50.228,35.31,82.69,35.31c32.461,0,61.795-15.448,82.69-35.31h111.517
			c3.612,0,6.854-2.616,8.198-5.97l17.589-44.179c0.002-0.004,0.004-0.117,0.006-0.121l17.649-44.227
			c0.002-0.004,0.004-0.011,0.006-0.017l17.715-44.289C512.457,238.289,512.121,235.621,510.483,233.198z M32.455,273.875
			l-10.593-26.483h132.384c-4.332,6.621-7.675,15.448-9.886,26.483H32.455z M50.112,318.013L39.517,291.53h102.097
			c-0.222,2.207-0.373,5.853-0.373,8.828c0,6.002,0.47,11.034,1.362,17.655H50.112z M67.767,362.151l-10.593-26.483h89.651
			c3.054,8.828,7.3,17.655,12.552,26.483H67.767z M256,396.625c-53.543,0-97.104-43.56-97.104-97.104s43.56-97.104,97.104-97.104
			s97.104,43.56,97.104,97.104S309.543,396.625,256,396.625z M444.233,362.151h-91.608c5.25-8.828,9.496-17.655,12.552-26.483
			h89.651L444.233,362.151z M461.888,318.013h-92.489c0.892-6.621,1.36-11.653,1.36-17.655c0-2.974-0.151-6.621-0.373-8.828h102.097
			L461.888,318.013z M479.545,273.875H367.64c-2.211-11.034-5.554-19.862-9.886-26.483h132.384L479.545,273.875z"/>
	</g>
</g>
<g>
	<g>
		<path fill="white" stroke="black" stroke-width="10px" d="M331.56,274.978c-1.043-3.198-3.802-5.526-7.129-6.009l-41.81-6.086l-18.707-37.888c-2.965-6.035-12.862-6.035-15.827,0
			l-18.707,37.888l-41.81,6.086c-3.328,0.483-6.086,2.81-7.129,6.009c-1.034,3.19-0.172,6.698,2.233,9.043l30.259,29.5
			l-7.138,41.647c-0.569,3.31,0.793,6.655,3.509,8.629c2.724,1.983,6.336,2.241,9.302,0.672L256,344.806l37.397,19.664
			c1.293,0.681,2.707,1.017,4.112,1.017c1.828,0,3.646-0.569,5.19-1.69c2.715-1.974,4.077-5.319,3.509-8.629l-7.138-41.647
			l30.259-29.5C331.733,281.677,332.595,278.168,331.56,274.978z M283.422,304.116c-2.078,2.026-3.026,4.948-2.535,7.81
			l4.897,28.595l-25.672-13.5c-1.293-0.681-2.698-1.017-4.112-1.017c-1.414,0-2.819,0.336-4.112,1.017l-25.672,13.5l4.897-28.595
			c0.491-2.862-0.457-5.785-2.535-7.81l-20.776-20.25l28.707-4.181c2.879-0.414,5.362-2.224,6.647-4.828L256,248.841l12.845,26.017
			c1.284,2.604,3.767,4.414,6.647,4.828l28.707,4.181L283.422,304.116z"/>
	</g>
</g>
<g>
	<g>
		<path fill="white" stroke="black" stroke-width="10px" d="M174.828,156.194c-1.043-3.19-3.802-5.517-7.129-6l-12.81-1.862l-5.733-11.612c-2.965-6.035-12.862-6.035-15.827,0
			l-5.733,11.612l-12.81,1.862c-3.328,0.483-6.086,2.81-7.129,6c-1.035,3.198-0.173,6.707,2.233,9.052l9.276,9.043l-2.19,12.759
			c-0.569,3.31,0.793,6.655,3.509,8.629c2.741,1.991,6.327,2.241,9.302,0.672l11.457-6.026l11.457,6.026
			c1.293,0.681,2.707,1.017,4.112,1.017c1.828,0,3.646-0.569,5.19-1.69c2.715-1.974,4.077-5.319,3.509-8.629l-2.19-12.759
			l9.276-9.043C175,162.901,175.862,159.392,174.828,156.194z M145.095,172.401c-1.216-0.586-2.534-0.879-3.854-0.879
			c-1.319,0-2.638,0.293-3.853,0.879c0.371-2.672-0.5-5.362-2.371-7.31c2.655-0.474,4.948-2.146,6.224-4.526
			c1.276,2.379,3.569,4.052,6.224,4.526C145.595,167.039,144.724,169.728,145.095,172.401z"/>
	</g>
</g>
<g>
	<g>
		<path fill="white" stroke="black" stroke-width="10px" d="M289.586,120.883c-1.043-3.19-3.802-5.517-7.129-6l-12.81-1.862l-5.733-11.612c-2.965-6.035-12.862-6.035-15.827,0
			l-5.733,11.612l-12.81,1.862c-3.328,0.483-6.086,2.81-7.129,6c-1.035,3.198-0.173,6.707,2.233,9.052l9.276,9.043l-2.19,12.759
			c-0.569,3.31,0.793,6.655,3.509,8.629c2.733,1.992,6.336,2.25,9.302,0.672L256,155.013l11.457,6.026
			c1.293,0.681,2.707,1.017,4.112,1.017c1.828,0,3.646-0.569,5.19-1.69c2.715-1.974,4.078-5.319,3.509-8.629l-2.19-12.759
			l9.276-9.043C289.759,127.59,290.621,124.082,289.586,120.883z M259.853,137.09c-1.216-0.586-2.534-0.879-3.853-0.879
			c-1.319,0-2.638,0.293-3.853,0.879c0.371-2.672-0.5-5.362-2.371-7.31c2.655-0.474,4.948-2.146,6.224-4.526
			c1.276,2.379,3.569,4.052,6.224,4.526C260.354,131.728,259.483,134.418,259.853,137.09z"/>
	</g>
</g>
<g>
	<g>
		<path fill="white" stroke="black" stroke-width="10px" d="M395.517,156.194c-1.043-3.19-3.802-5.517-7.129-6l-12.81-1.862l-5.733-11.612c-2.965-6.035-12.862-6.035-15.827,0
			l-5.733,11.612l-12.81,1.862c-3.328,0.483-6.086,2.81-7.129,6c-1.035,3.198-0.173,6.707,2.233,9.052l9.276,9.043l-2.19,12.759
			c-0.569,3.31,0.793,6.655,3.509,8.629c2.733,1.991,6.327,2.241,9.302,0.672l11.457-6.026l11.457,6.026
			c1.293,0.681,2.707,1.017,4.112,1.017c1.828,0,3.646-0.569,5.19-1.69c2.715-1.974,4.077-5.319,3.509-8.629l-2.19-12.759
			l9.276-9.043C395.69,162.901,396.552,159.392,395.517,156.194z M365.785,172.401c-1.216-0.586-2.534-0.879-3.853-0.879
			c-1.319,0-2.638,0.293-3.853,0.879c0.371-2.672-0.5-5.362-2.371-7.31c2.655-0.474,4.948-2.146,6.224-4.526
			c1.276,2.379,3.569,4.052,6.224,4.526C366.285,167.039,365.414,169.728,365.785,172.401z"/>
	</g>
</g>
</svg>