<?xml version="1.0" encoding="iso-8859-1"?>
<!-- Uploaded to: SVG Repo, www.svgrepo.com, Generator: SVG Repo Mixer Tools -->
<svg fill="#000000" height="800px" width="800px" version="1.1" id="Layer_1" xmlns="http://www.w3.org/2000/svg" xmlns:xlink="http://www.w3.org/1999/xlink" 
	 viewBox="0 0 512 512" xml:space="preserve">
<g>
	<g>
		<path fill="white" stroke="black" stroke-width="10px" d="M448.015,171.742c-2.7-1.5-5.758-1.417-8.383,0.217c-0.596,0.366-59.833,37.383-102.779,68.608
			c-33.913,24.667-66.596,57.25-80.092,71.175c-12.283-13.167-41.538-42.883-80.438-71.175
			c-50.375-36.633-102.45-68.341-102.971-68.658c-2.629-1.592-6.45-1.65-9.137-0.142c-2.688,1.508-4.875,4.35-4.875,7.433v68.267
			c0,3.158,2.279,6.067,5.075,7.542c0.554,0.292,56.279,29.716,93.317,54.975c36.529,24.908,91.842,87.55,92.396,88.183
			c1.625,1.85,4.029,2.9,6.479,2.9c0.121,0,0.275,0,0.396-0.008c2.583-0.108,4.992-1.383,6.525-3.467
			c0.371-0.5,37.742-50.742,91.813-87.608c54.637-37.25,91.7-54.583,92.075-54.758c3.037-1.383,4.458-4.417,4.458-7.758V179.2
			C451.873,176.1,450.727,173.242,448.015,171.742z M434.806,242.092c-10.667,5.958-44.671,23.15-89.608,53.792
			c-43.767,29.842-76.029,67.058-89.238,83.358c-16.254-17.925-58.183-62.342-89.012-83.358
			C134.96,274.075,91.34,250,76.406,242.358V194.55c19.2,11.633,54.612,34.533,89.379,59.817
			c49.229,35.808,83.837,75.1,84.175,75.492c1.592,1.833,4.017,2.9,6.438,2.942c2.45,0.158,4.817-0.942,6.463-2.725
			c0.417-0.45,41.562-45.133,83.596-75.708c30.313-22.042,69.15-47.058,88.35-59.692V242.092z"/>
	</g>
</g>
<g>
	<g>
		<path fill="#00bebc" stroke="black" stroke-width="10px" d="M448.015,282.675c-2.7-1.5-5.758-1.417-8.383,0.217c-0.596,0.367-59.833,37.383-102.779,68.608
			c-33.913,24.667-66.596,57.25-80.092,71.175c-12.283-13.167-41.538-42.883-80.438-71.175
			c-50.375-36.633-102.45-68.342-102.971-68.658c-2.629-1.6-6.45-1.65-9.137-0.142c-2.688,1.508-4.875,4.35-4.875,7.433V358.4
			c0,3.158,2.279,6.067,5.075,7.542c0.554,0.292,56.279,29.716,93.317,54.975c36.529,24.908,91.842,87.55,92.396,88.183
			c1.625,1.85,4.029,2.9,6.479,2.9c0.121,0,0.275,0,0.396-0.008c2.583-0.108,4.992-1.383,6.525-3.467
			c0.371-0.5,37.742-50.742,91.813-87.608c54.637-37.25,91.7-54.583,92.075-54.758c3.037-1.383,4.458-4.417,4.458-7.758v-68.267
			C451.873,287.033,450.727,284.175,448.015,282.675z M434.806,353.025c-10.667,5.958-44.671,23.15-89.608,53.792
			c-43.767,29.842-76.029,67.058-89.238,83.358c-16.254-17.925-58.183-62.342-89.012-83.358
			c-31.987-21.808-75.608-45.883-90.542-53.525v-47.808c19.2,11.633,54.612,34.533,89.379,59.817
			c49.229,35.808,83.837,75.1,84.175,75.492c1.592,1.833,4.017,2.9,6.438,2.942c2.45-0.05,4.817-0.95,6.463-2.725
			c0.417-0.45,41.562-45.133,83.596-75.708c30.313-22.042,69.15-47.058,88.35-59.692V353.025z"/>
	</g>
</g>
<g>
	<g>
		<path fill="white" stroke="black" stroke-width="10px" d="M297.252,106.283c-1.004-3.092-3.675-5.342-6.892-5.808l-17.987-2.617l-8.05-16.3c-2.875-5.833-12.425-5.833-15.3,0
			l-8.05,16.3l-17.987,2.617c-3.217,0.467-5.888,2.717-6.892,5.8c-1.004,3.092-0.167,6.483,2.158,8.75l13.021,12.692l-3.075,17.925
			c-0.546,3.2,0.771,6.434,3.396,8.342c1.488,1.083,3.25,1.633,5.017,1.633c1.358,0,2.725-0.325,3.971-0.983l16.092-8.458
			l16.092,8.458c2.879,1.517,6.362,1.267,8.987-0.65c2.625-1.908,3.942-5.142,3.396-8.342l-3.075-17.925l13.021-12.692
			C297.419,112.758,298.256,109.367,297.252,106.283z M266.944,118.633c-2.009,1.958-2.925,4.783-2.45,7.55l0.908,5.3l-4.758-2.5
			c-2.483-1.317-5.458-1.317-7.942,0l-4.758,2.5l0.908-5.3c0.471-2.767-0.446-5.592-2.454-7.55l-3.854-3.758l5.321-0.775
			c2.779-0.4,5.183-2.15,6.425-4.667l2.383-4.825l2.383,4.825c1.242,2.517,3.646,4.267,6.425,4.667l5.317,0.775L266.944,118.633z"/>
	</g>
</g>
<g>
	<g>
		<path fill="#00bebc" stroke="black" stroke-width="10px" d="M448.548,61.067C444.631,58.575,351.731,0,256.456,0C161.177,0,68.144,58.575,64.227,61.067
			c-0.069,0.044-0.053,0.102-0.121,0.148c-0.37,0.25-0.685,0.521-1.008,0.821c-0.051,0.048-0.094,0.09-0.144,0.137
			c-0.346,0.34-0.644,0.713-0.925,1.102c-0.081,0.112-0.152,0.227-0.228,0.342c-0.228,0.35-0.43,0.715-0.605,1.094
			c-0.03,0.067-0.068,0.127-0.096,0.194c-0.189,0.44-0.33,0.896-0.444,1.365c-0.029,0.123-0.05,0.246-0.074,0.369
			c-0.075,0.383-0.123,0.771-0.145,1.167c-0.006,0.112-0.554,0.221-0.555,0.333c-0.001,0.044-0.543,0.086-0.543,0.129v68.267
			c0,3.158,2.279,6.067,5.075,7.542c0.554,0.292,56.279,29.716,93.317,54.975c36.529,24.908,91.842,87.55,92.396,88.183
			c1.625,1.85,4.029,2.9,6.479,2.9c0.121,0,0.275,0,0.396-0.008c2.583-0.108,4.992-1.383,6.525-3.467
			c0.371-0.5,37.742-50.742,91.813-87.608c54.637-37.25,91.7-54.583,92.075-54.758c3.037-1.383,4.458-4.417,4.458-7.758V69.379
			C454.006,66.194,451.438,62.908,448.548,61.067z M256.723,17.067c71.175,0,143.477,35.973,171.292,51.452
			c-5.41,3.44-12.361,7.885-20.281,13.023c-38.131-18.054-94.367-38.875-150.965-38.875c-56.881,0-113.446,21.121-150.883,38.835
			c-8.061-5.214-15.017-9.625-20.413-13.015C113.301,52.99,185.49,17.067,256.723,17.067z M390.877,92.573
			c-17.444,11.519-36.942,24.738-53.892,37.06c-33.913,24.667-66.663,57.25-80.158,71.175
			c-12.283-13.167-41.571-42.883-80.471-71.175c-18.52-13.469-37.264-26.262-53.6-37.085
			c35.512-15.881,84.868-32.815,134.012-32.815C305.727,59.733,354.89,76.467,390.877,92.573z M434.806,131.158
			c-10.667,5.958-44.671,23.15-89.608,53.792c-43.767,29.842-76.029,67.058-89.238,83.358
			c-16.254-17.925-58.183-62.342-89.012-83.358c-31.987-21.808-75.608-45.883-90.542-53.525V83.617
			c19.2,11.633,54.612,34.533,89.379,59.817c49.229,35.808,83.837,75.1,84.175,75.492c1.592,1.833,4.017,2.9,6.438,2.942
			c2.45-0.075,4.817-0.95,6.463-2.725c0.417-0.45,41.562-45.133,83.596-75.708c30.313-22.042,69.15-47.058,88.35-59.692V131.158z"/>
	</g>
</g>
</svg>