<?xml version="1.0" encoding="iso-8859-1"?>
<!-- Uploaded to: SVG Repo, www.svgrepo.com, Generator: SVG Repo Mixer Tools -->
<svg fill="#000000" height="800px" width="800px" version="1.1" id="Layer_1" xmlns="http://www.w3.org/2000/svg" xmlns:xlink="http://www.w3.org/1999/xlink" 
	 viewBox="0 0 512 512" xml:space="preserve">
<g>
	<g>
		<path fill="white" stroke="black" stroke-width="10px" d="M497.508,0H17.221c-6.028,0-12.28,3.848-12.28,9.882v21.831c0,5.063,4.189,9.477,9.119,10.628
			c0.469,0.117,47.996,11.555,116.741,58.426c69.166,47.159,117.13,111.427,117.604,112.066c1.961,2.665,5.106,4.296,8.41,4.434
			c0.155,0.011,0.352,0.011,0.507,0.011c3.134,0,6.145-1.343,8.224-3.71c0.709-0.81,71.304-80.94,118.031-112.802
			c46.759-31.883,116.394-58.576,117.098-58.842c4.248-1.599,6.385-5.671,6.385-10.212V9.882C507.059,3.848,503.536,0,497.508,0z
			 M485.228,24.251c-19.102,7.76-74.091,30.839-114.625,58.48c-39.436,26.884-92.218,83.701-113.01,106.63
			c-16.896-20.85-59.018-68.457-115.003-106.63C86.6,44.558,45.874,28.856,26.772,23.462v-1.631h458.456V24.251z"/>
	</g>
</g>
<g>
	<g>
		<path fill="#00bebc" stroke="black" stroke-width="10px" d="M502.177,65.867c-3.427-1.94-7.307-1.855-10.676,0.181c-0.666,0.405-67.13,40.966-131.574,87.826
			c-49.755,36.19-87.133,74.203-102.846,91.045c-17.264-17.812-59.114-59.492-102.499-91.045
			C99.653,113.932,23.729,66.581,22.967,66.112c-3.358-2.1-8.283-2.207-11.737-0.277c-3.47,1.919-6.289,5.575-6.289,9.54V162.7
			c0,4.275,3.177,8.155,7.062,9.924c0.48,0.224,48.907,22.396,118.798,70.045c69.166,47.159,117.13,111.427,117.604,112.066
			c1.961,2.665,5.106,4.296,8.41,4.435c0.155,0.011,0.352,0.011,0.507,0.011c3.134,0,6.145-1.343,8.224-3.71
			c0.709-0.81,71.304-80.94,118.031-112.802c47.356-32.288,117.641-69.949,118.35-70.323c3.577-1.887,5.133-5.607,5.133-9.647
			V75.375C507.059,71.431,505.615,67.796,502.177,65.867z M485.228,156.166c-16.373,9.775-73.707,40.571-114.625,68.468
			c-39.436,26.884-92.218,83.701-113.01,106.63c-16.896-20.85-59.018-68.457-115.003-106.63
			c-57.483-39.196-99.445-61.187-115.818-68.809V95.171c27.289,16.16,75.562,48.161,114.332,76.356
			c53.72,39.079,107.386,96.268,107.92,96.844c2.111,2.27,5.244,3.539,8.352,3.486c3.097-0.053,6.113-1.418,8.149-3.763
			c0.432-0.501,43.721-50.762,106.688-96.567c44.462-32.331,91.184-61.635,113.015-76.516V156.166z"/>
	</g>
</g>
<g>
	<g>
		<path fill="white" stroke="black" stroke-width="10px" d="M502.177,218.685c-3.427-1.94-7.307-1.855-10.676,0.181c-0.666,0.405-67.13,40.966-131.574,87.826
			c-49.754,36.19-87.133,74.203-102.846,91.045c-17.264-17.812-59.114-59.492-102.499-91.045
			C99.653,266.75,23.729,219.4,22.967,218.931c-3.358-2.09-8.283-2.207-11.737-0.277c-3.47,1.919-6.289,5.575-6.289,9.541v87.325
			c0,4.275,3.177,8.155,7.062,9.924c0.48,0.224,48.907,22.396,118.798,70.046c69.166,47.159,117.13,111.427,117.604,112.066
			c1.961,2.665,5.106,4.296,8.41,4.435C256.97,512,257.167,512,257.322,512c3.134,0,6.145-1.343,8.224-3.71
			c0.709-0.81,71.304-80.94,118.031-112.802c47.356-32.288,117.641-69.949,118.35-70.323c3.576-1.887,5.133-5.607,5.133-9.647
			v-87.325C507.059,224.25,505.615,220.615,502.177,218.685z M485.228,308.985c-16.373,9.775-73.707,40.571-114.625,68.468
			c-39.436,26.884-92.218,83.701-113.01,106.63c-16.896-20.85-59.018-68.457-115.003-106.63
			c-57.483-39.196-99.445-61.187-115.818-68.809v-60.654c27.289,16.16,75.562,48.161,114.332,76.356
			c53.72,39.079,107.386,96.268,107.92,96.844c2.111,2.27,5.244,3.603,8.352,3.486c3.097-0.053,6.113-1.418,8.149-3.763
			c0.432-0.501,43.721-50.762,106.688-96.567c44.462-32.331,91.184-61.635,113.015-76.516V308.985z"/>
	</g>
</g>
</svg>