<?xml version="1.0" encoding="iso-8859-1"?>
<!-- Uploaded to: SVG Repo, www.svgrepo.com, Generator: SVG Repo Mixer Tools -->
<svg fill="white" stroke="black" stroke-width="10px" height="800px" width="800px" version="1.1" id="Layer_1" xmlns="http://www.w3.org/2000/svg" xmlns:xlink="http://www.w3.org/1999/xlink" 
	 viewBox="0 0 512 512" xml:space="preserve">
<g>
	<g>
		<path fill="#00bebc" stroke="black" stroke-width="10px" d="M503.04,174.08H362.093c-24.388-33.28-62.288-51.2-104.813-51.2c-42.525,0-80.425,17.92-104.813,51.2H11.52
			c-5.655,0-11.52,3.61-11.52,9.27v51.2v51.2v51.2c0,5.66,5.865,11.21,11.52,11.21h149.838c24.237,23.04,58.266,40.96,95.922,40.96
			c37.658,0,71.685-17.92,95.922-40.96H503.04c5.655,0,8.96-5.55,8.96-11.21v-51.2v-51.2v-51.2
			C512,177.69,508.695,174.08,503.04,174.08z M20.48,194.56h118.765c-5.025,7.68-8.903,17.92-11.468,30.72H20.48V194.56z
			 M20.48,245.76h104.114c-0.259,2.56-0.434,6.79-0.434,10.24c0,6.962,0.544,12.8,1.579,20.48H20.48V245.76z M20.48,327.68v-30.72
			h110.156c3.543,10.24,8.469,20.48,14.559,30.72H20.48z M257.28,367.67c-62.11,0-112.64-50.53-112.64-112.64
			s50.53-112.64,112.64-112.64s112.64,50.53,112.64,112.64S319.39,367.67,257.28,367.67z M491.52,327.68H369.365
			c6.093-10.24,11.017-20.48,14.56-30.72H491.52V327.68z M491.52,276.48H388.823c1.035-7.68,1.577-13.518,1.577-20.48
			c0-3.45-0.174-7.68-0.432-10.24H491.52V276.48z M491.52,225.28H386.782c-2.564-12.8-6.441-23.04-11.468-30.72H491.52V225.28z"/>
	</g>
</g>
<g>
	<g>
		<path fill="white" stroke="black" stroke-width="10px" d="M331.685,229.71c-1.205-3.7-4.41-6.4-8.27-6.96l-41.775-6.07l-18.685-37.86c-3.46-7.01-14.92-6.99-18.37,0l-18.68,37.86
			l-41.775,6.07c-3.86,0.56-7.065,3.26-8.27,6.96c-1.205,3.71-0.2,7.78,2.59,10.5l30.235,29.47l-7.14,41.61
			c-0.655,3.84,0.925,7.72,4.075,10.01c1.785,1.3,3.9,1.96,6.02,1.96c1.63,0,3.265-0.39,4.765-1.18l37.365-19.64l37.37,19.64
			c3.45,1.83,7.63,1.53,10.785-0.78c3.15-2.29,4.73-6.17,4.075-10.01l-7.135-41.61l30.23-29.47
			C331.885,237.49,332.89,233.42,331.685,229.71z M280.71,258.78c-2.41,2.35-3.51,5.74-2.945,9.06l4.54,26.46l-23.77-12.49
			c-1.49-0.79-3.13-1.18-4.765-1.18s-3.275,0.39-4.765,1.18L225.24,294.3l4.54-26.46c0.565-3.32-0.535-6.71-2.945-9.06l-19.23-18.75
			l26.57-3.86c3.335-0.48,6.22-2.58,7.715-5.6l11.88-24.08l11.89,24.08c1.49,3.02,4.375,5.12,7.71,5.6l26.57,3.86L280.71,258.78z"/>
	</g>
</g>
</svg>